<mxfile host="app.diagrams.net" agent="Mozilla/5.0 (Windows NT 10.0; Win64; x64; rv:142.0) Gecko/20100101 Firefox/142.0" version="28.2.0">
  <diagram name="Page-1" id="bukZwLYqMrA_WsE_7rw9">
    <mxGraphModel dx="1489" dy="764" grid="1" gridSize="10" guides="1" tooltips="1" connect="1" arrows="1" fold="1" page="1" pageScale="1" pageWidth="827" pageHeight="1169" math="0" shadow="0">
      <root>
        <mxCell id="0" />
        <mxCell id="1" parent="0" />
        <mxCell id="a0-VIsSDdO1QvE9lzKu_-2" value="&lt;h1 align=&quot;left&quot; style=&quot;margin-top: 0px;&quot;&gt;&amp;nbsp; &amp;nbsp; Action&lt;/h1&gt;&lt;div align=&quot;left&quot;&gt;&lt;ul&gt;&lt;li&gt;&lt;font style=&quot;font-size: 14px;&quot;&gt;Organisation stratégique ;&lt;/font&gt;&lt;/li&gt;&lt;li&gt;&lt;font style=&quot;font-size: 14px;&quot;&gt;Mode d&#39;action ;&lt;/font&gt;&lt;/li&gt;&lt;li&gt;&lt;font style=&quot;font-size: 14px;&quot;&gt;...&lt;/font&gt;&lt;/li&gt;&lt;/ul&gt;&lt;/div&gt;" style="text;html=1;whiteSpace=wrap;overflow=hidden;rounded=1;align=left;strokeColor=default;strokeWidth=2;" vertex="1" parent="1">
          <mxGeometry x="20" y="160" width="210" height="110" as="geometry" />
        </mxCell>
        <mxCell id="a0-VIsSDdO1QvE9lzKu_-3" value="&lt;div&gt;&lt;font style=&quot;font-size: 50px;&quot;&gt;Liste des Commission&amp;nbsp;&lt;/font&gt;&lt;/div&gt;&lt;div&gt;&lt;font style=&quot;font-size: 50px;&quot;&gt;et Perimètre&lt;/font&gt;&lt;/div&gt;" style="text;html=1;align=center;verticalAlign=middle;whiteSpace=wrap;rounded=0;" vertex="1" parent="1">
          <mxGeometry x="170" y="50" width="510" height="30" as="geometry" />
        </mxCell>
        <mxCell id="a0-VIsSDdO1QvE9lzKu_-5" value="&lt;h1 align=&quot;left&quot; style=&quot;margin-top: 0px;&quot;&gt;&amp;nbsp; &amp;nbsp; Communication&lt;/h1&gt;&lt;div align=&quot;left&quot;&gt;&lt;ul&gt;&lt;li&gt;&lt;font style=&quot;font-size: 14px;&quot;&gt;... ;&lt;/font&gt;&lt;/li&gt;&lt;li&gt;&lt;font style=&quot;font-size: 14px;&quot;&gt;... ;&lt;/font&gt;&lt;/li&gt;&lt;li&gt;&lt;font style=&quot;font-size: 14px;&quot;&gt;...&lt;/font&gt;&lt;/li&gt;&lt;/ul&gt;&lt;/div&gt;" style="text;html=1;whiteSpace=wrap;overflow=hidden;rounded=1;align=left;strokeColor=default;strokeWidth=2;" vertex="1" parent="1">
          <mxGeometry x="300" y="160" width="240" height="110" as="geometry" />
        </mxCell>
        <mxCell id="a0-VIsSDdO1QvE9lzKu_-6" value="&lt;h1 align=&quot;left&quot; style=&quot;margin-top: 0px;&quot;&gt;&amp;nbsp; &amp;nbsp; Cantine&lt;/h1&gt;&lt;div align=&quot;left&quot;&gt;&lt;ul&gt;&lt;li&gt;&lt;font style=&quot;font-size: 14px;&quot;&gt;... ;&lt;/font&gt;&lt;/li&gt;&lt;li&gt;&lt;font style=&quot;font-size: 14px;&quot;&gt;... ;&lt;/font&gt;&lt;/li&gt;&lt;li&gt;&lt;font style=&quot;font-size: 14px;&quot;&gt;...&lt;/font&gt;&lt;/li&gt;&lt;/ul&gt;&lt;/div&gt;" style="text;html=1;whiteSpace=wrap;overflow=hidden;rounded=1;align=left;strokeColor=default;strokeWidth=2;" vertex="1" parent="1">
          <mxGeometry x="600" y="160" width="210" height="110" as="geometry" />
        </mxCell>
        <mxCell id="a0-VIsSDdO1QvE9lzKu_-7" value="&lt;h1 align=&quot;left&quot; style=&quot;margin-top: 0px;&quot;&gt;&amp;nbsp; &amp;nbsp; Grève&lt;/h1&gt;&lt;div align=&quot;left&quot;&gt;&lt;ul&gt;&lt;li&gt;&lt;font style=&quot;font-size: 14px;&quot;&gt;... ;&lt;/font&gt;&lt;/li&gt;&lt;li&gt;&lt;font style=&quot;font-size: 14px;&quot;&gt;... ;&lt;/font&gt;&lt;/li&gt;&lt;li&gt;&lt;font style=&quot;font-size: 14px;&quot;&gt;...&lt;/font&gt;&lt;/li&gt;&lt;/ul&gt;&lt;/div&gt;" style="text;html=1;whiteSpace=wrap;overflow=hidden;rounded=1;align=left;strokeColor=default;strokeWidth=2;" vertex="1" parent="1">
          <mxGeometry x="20" y="340" width="210" height="110" as="geometry" />
        </mxCell>
        <mxCell id="a0-VIsSDdO1QvE9lzKu_-8" value="&lt;h1 align=&quot;center&quot; style=&quot;margin-top: 0px;&quot;&gt;&amp;nbsp; &amp;nbsp;Démocratie interne&lt;/h1&gt;&lt;div align=&quot;left&quot;&gt;&lt;ul&gt;&lt;li&gt;&lt;font style=&quot;font-size: 14px;&quot;&gt;... ;&lt;/font&gt;&lt;/li&gt;&lt;li&gt;&lt;font style=&quot;font-size: 14px;&quot;&gt;... ;&lt;/font&gt;&lt;/li&gt;&lt;li&gt;&lt;font style=&quot;font-size: 14px;&quot;&gt;...&lt;/font&gt;&lt;/li&gt;&lt;/ul&gt;&lt;/div&gt;" style="text;html=1;whiteSpace=wrap;overflow=hidden;rounded=1;align=left;strokeColor=default;strokeWidth=2;" vertex="1" parent="1">
          <mxGeometry x="286.25" y="340" width="267.5" height="110" as="geometry" />
        </mxCell>
        <mxCell id="a0-VIsSDdO1QvE9lzKu_-10" value="&lt;h1 align=&quot;center&quot; style=&quot;margin-top: 0px;&quot;&gt;&amp;nbsp; &amp;nbsp;Groupe 8&lt;/h1&gt;&lt;div align=&quot;left&quot;&gt;&lt;ul&gt;&lt;li&gt;&lt;font style=&quot;font-size: 14px;&quot;&gt;... ;&lt;/font&gt;&lt;/li&gt;&lt;li&gt;&lt;font style=&quot;font-size: 14px;&quot;&gt;... ;&lt;/font&gt;&lt;/li&gt;&lt;li&gt;&lt;font style=&quot;font-size: 14px;&quot;&gt;...&lt;/font&gt;&lt;/li&gt;&lt;/ul&gt;&lt;/div&gt;" style="text;html=1;whiteSpace=wrap;overflow=hidden;rounded=1;align=left;strokeColor=default;strokeWidth=2;" vertex="1" parent="1">
          <mxGeometry x="286.25" y="510" width="267.5" height="110" as="geometry" />
        </mxCell>
        <mxCell id="a0-VIsSDdO1QvE9lzKu_-11" value="&lt;h1 align=&quot;center&quot; style=&quot;margin-top: 0px;&quot;&gt;&amp;nbsp; &amp;nbsp;Groupe 7&lt;/h1&gt;&lt;div align=&quot;left&quot;&gt;&lt;ul&gt;&lt;li&gt;&lt;font style=&quot;font-size: 14px;&quot;&gt;... ;&lt;/font&gt;&lt;/li&gt;&lt;li&gt;&lt;font style=&quot;font-size: 14px;&quot;&gt;... ;&lt;/font&gt;&lt;/li&gt;&lt;li&gt;&lt;font style=&quot;font-size: 14px;&quot;&gt;...&lt;/font&gt;&lt;/li&gt;&lt;/ul&gt;&lt;/div&gt;" style="text;html=1;whiteSpace=wrap;overflow=hidden;rounded=1;align=left;strokeColor=default;strokeWidth=2;" vertex="1" parent="1">
          <mxGeometry x="20" y="510" width="210" height="110" as="geometry" />
        </mxCell>
        <mxCell id="a0-VIsSDdO1QvE9lzKu_-12" value="&lt;h1 align=&quot;center&quot; style=&quot;margin-top: 0px;&quot;&gt;&amp;nbsp; &amp;nbsp;Groupe 9&lt;/h1&gt;&lt;div align=&quot;left&quot;&gt;&lt;ul&gt;&lt;li&gt;&lt;font style=&quot;font-size: 14px;&quot;&gt;... ;&lt;/font&gt;&lt;/li&gt;&lt;li&gt;&lt;font style=&quot;font-size: 14px;&quot;&gt;... ;&lt;/font&gt;&lt;/li&gt;&lt;li&gt;&lt;font style=&quot;font-size: 14px;&quot;&gt;...&lt;/font&gt;&lt;/li&gt;&lt;/ul&gt;&lt;/div&gt;" style="text;html=1;whiteSpace=wrap;overflow=hidden;rounded=1;align=left;strokeColor=default;strokeWidth=2;" vertex="1" parent="1">
          <mxGeometry x="600" y="510" width="210" height="110" as="geometry" />
        </mxCell>
        <mxCell id="a0-VIsSDdO1QvE9lzKu_-13" value="&lt;h1 align=&quot;center&quot; style=&quot;margin-top: 0px;&quot;&gt;&amp;nbsp; &amp;nbsp;Groupe 6&lt;/h1&gt;&lt;div align=&quot;left&quot;&gt;&lt;ul&gt;&lt;li&gt;&lt;font style=&quot;font-size: 14px;&quot;&gt;... ;&lt;/font&gt;&lt;/li&gt;&lt;li&gt;&lt;font style=&quot;font-size: 14px;&quot;&gt;... ;&lt;/font&gt;&lt;/li&gt;&lt;li&gt;&lt;font style=&quot;font-size: 14px;&quot;&gt;...&lt;/font&gt;&lt;/li&gt;&lt;/ul&gt;&lt;/div&gt;" style="text;html=1;whiteSpace=wrap;overflow=hidden;rounded=1;align=left;strokeColor=default;strokeWidth=2;" vertex="1" parent="1">
          <mxGeometry x="600" y="340" width="210" height="110" as="geometry" />
        </mxCell>
      </root>
    </mxGraphModel>
  </diagram>
</mxfile>
